<svg width="21" height="21" viewBox="0 0 21 21" fill="none" xmlns="http://www.w3.org/2000/svg">
<path d="M2.90932 2.80602L2.90925 2.80594L2.90174 2.81348C0.0570942 5.67345 -0.314552 10.1028 2.07484 13.2298C3.88509 15.689 7.53416 17.685 11.8684 15.8142C12.5801 15.5071 13.3565 15.6145 13.8145 16.105C13.8752 16.1699 13.9359 16.2351 13.9968 16.3004C14.415 16.7489 14.8395 17.2041 15.2921 17.6592C15.7326 18.102 16.1427 18.5418 16.5591 18.9884C16.7277 19.1692 16.8973 19.3511 17.0704 19.5348C17.6905 20.1927 18.7331 20.2422 19.3899 19.5829C20.0777 18.8924 20.1267 17.7342 19.4143 17.0194C18.3066 15.9078 17.1967 14.8016 16.0859 13.729C15.607 13.2666 15.4748 12.5198 15.7357 11.8405C16.4799 9.90256 16.6438 8.0293 16.2207 6.34702C15.7969 4.66154 14.7925 3.20352 13.2641 2.09009C10.0472 -0.304007 5.75748 0.0618444 2.90932 2.80602ZM8.61425 3.10496C11.5604 3.10496 13.9187 5.55947 13.9187 8.55294C13.9187 11.6461 11.5727 14.0009 8.50262 14.0009C5.538 14.0009 3.08649 11.64 3.08649 8.55294C3.08649 5.47196 5.53187 3.10496 8.61425 3.10496Z" fill="#1D4076" stroke="#1D4076"/>
</svg>
